
<svg width="512" height="512" viewBox="0 0 512 512" xmlns="http://www.w3.org/2000/svg">
  <defs>
    <!-- Gradients -->
    <linearGradient id="micGrad" x1="0%" y1="0%" x2="0%" y2="100%">
      <stop offset="0%" stop-color="#c77dff"/>
      <stop offset="100%" stop-color="#9b5de5"/>
    </linearGradient>

    <linearGradient id="standGrad" x1="0%" y1="0%" x2="0%" y2="100%">
      <stop offset="0%" stop-color="#b685ff"/>
      <stop offset="100%" stop-color="#7a4cff"/>
    </linearGradient>

    <linearGradient id="waveGrad" x1="0%" y1="0%" x2="100%" y2="0%">
      <stop offset="0%" stop-color="#29abe2"/>
      <stop offset="50%" stop-color="#ac5cff"/>
      <stop offset="100%" stop-color="#9b5de5"/>
    </linearGradient>

    <!-- Soft shadow -->
    <filter id="softShadow" x="-50%" y="-50%" width="200%" height="200%">
      <feGaussianBlur stdDeviation="6" result="blur"/>
      <feOffset in="blur" dy="4" result="offset"/>
      <feMerge>
        <feMergeNode in="offset"/>
        <feMergeNode in="SourceGraphic"/>
      </feMerge>
    </filter>
  </defs>

  <!-- ***** SOUND WAVES ***** -->
  <g stroke="url(#waveGrad)" stroke-linecap="round" fill="none">
    <!-- Left side -->
    <path d="M 176,140 A 80,80 0 0 0 176,300" stroke-width="12" />
    <path d="M 176,120 A 100,100 0 0 0 176,320" stroke-width="9"  />
    <path d="M 176,100 A 120,120 0 0 0 176,340" stroke-width="6"  />

    <!-- Right side -->
    <path d="M 336,140 A 80,80 0 0 1 336,300" stroke-width="12" />
    <path d="M 336,120 A 100,100 0 0 1 336,320" stroke-width="9"  />
    <path d="M 336,100 A 120,120 0 0 1 336,340" stroke-width="6"  />
  </g>

  <!-- ***** MICROPHONE ***** -->
  <!-- Main capsule -->
  <rect x="206" y="90" width="100" height="220" rx="50" fill="url(#micGrad)" filter="url(#softShadow)"/>

  <!-- Chip background -->
  <rect x="231" y="170" width="50" height="60" rx="8" fill="#2d266f"/>
  <!-- Chip pins left -->
  <rect x="226" y="176" width="5" height="6" fill="#ffffff" rx="1"/><rect x="226" y="186" width="5" height="6" fill="#ffffff" rx="1"/><rect x="226" y="196" width="5" height="6" fill="#ffffff" rx="1"/><rect x="226" y="206" width="5" height="6" fill="#ffffff" rx="1"/>
  <!-- Chip pins right -->
  <rect x="281" y="176" width="5" height="6" fill="#ffffff" rx="1"/><rect x="281" y="186" width="5" height="6" fill="#ffffff" rx="1"/><rect x="281" y="196" width="5" height="6" fill="#ffffff" rx="1"/><rect x="281" y="206" width="5" height="6" fill="#ffffff" rx="1"/>
  <!-- AI text -->
  <text x="256" y="205" font-family="Arial" font-size="22" font-weight="bold" fill="#ffffff" text-anchor="middle">AI</text>

  <!-- Side clamps -->
  <rect x="206" y="185" width="10" height="40" rx="2" fill="#ffffff"/>
  <rect x="296" y="185" width="10" height="40" rx="2" fill="#ffffff"/>

  <!-- Ring between mic and stand -->
  <circle cx="256" cy="320" r="48" stroke="url(#micGrad)" stroke-width="20" fill="none"/>

  <!-- Stand stem -->
  <rect x="246" y="320" width="20" height="70" fill="url(#standGrad)"/>

  <!-- Stand base -->
  <rect x="186" y="390" width="140" height="35" rx="17.5" fill="url(#standGrad)" filter="url(#softShadow)"/>
</svg>
